<svg width="30" height="30" viewBox="0 0 30 30" fill="none" xmlns="http://www.w3.org/2000/svg"><path d="M28.895.012L10.16 3.163C4.868 3.96 1.6 5.745.446 8.468c-1.291 3.054.571 6.068 1.173 6.918.62.879 1.2 1.433 1.238 1.469l1.258 1.15C-.114 23.92.619 28.874.675 29.208a.95.95 0 1 0 1.872-.316c-.048-.301-.674-4.829 3.471-10.28.031-.026.068-.04.097-.07.06-.066.093-.146.131-.222 2.567-3.26 6.849-6.823 13.985-9.998a.955.955 0 0 0 .483-1.258.946.946 0 0 0-1.252-.486c-6.973 3.103-11.385 6.608-14.175 9.918l-1.138-1.04a8.766 8.766 0 0 1-.983-1.176c-.458-.648-1.88-2.925-.974-5.066.866-2.044 3.717-3.485 8.265-4.169l17.537-2.95c-.392 3.224-2.134 12.313-9.606 17.997a.813.813 0 0 0-.098.085c-.16.16-4.044 3.896-9.462-.703a.945.945 0 0 0-1.337.113.957.957 0 0 0 .112 1.343c2.438 2.072 4.672 2.736 6.535 2.736 3.008 0 5.05-1.733 5.432-2.082C29.407 14.075 29.98 1.52 30 .99a.953.953 0 0 0-1.104-.976z" fill="#003D5F"/></svg>