<svg width="36" height="49" viewBox="0 0 36 49" fill="none" xmlns="http://www.w3.org/2000/svg"><path d="M18 1.5l1.262-.811a1.5 1.5 0 0 0-2.524 0L18 1.5zm16 30l-1.5.017L34 31.5zm-31.999 0l1.5.017-1.5-.017zM16.738 2.311c4.569 7.107 8.459 12.526 11.318 17.297 2.842 4.74 4.406 8.447 4.444 11.909l3-.034c-.047-4.308-1.983-8.6-4.87-13.418C27.76 13.278 23.692 7.582 19.261.69l-2.523 1.62zM32.5 31.517C32.598 40.42 25.41 46 18 46v3c8.813 0 17.62-6.688 17.5-17.517l-3 .034zM16.738.689C12.307 7.582 8.24 13.278 5.371 18.065 2.484 22.882.549 27.175.501 31.483l3 .034c.038-3.462 1.602-7.169 4.443-11.91 2.86-4.77 6.75-10.19 11.318-17.296L16.738.69zM.501 31.483C.381 42.313 9.186 49 18 49v-3c-7.41 0-14.597-5.58-14.499-14.483l-3-.034z" fill="#22E8F1"/><path d="M28.5 32.983a1.5 1.5 0 1 0-3 .034l3-.034zM20 38.5a1.5 1.5 0 0 0 0 3v-3zm5.5-5.483c.037 3.354-2.653 5.483-5.5 5.483v3c4.25 0 8.558-3.238 8.5-8.517l-3 .034z" fill="#22E8F1"/></svg>